<svg width="33" height="30" viewBox="0 0 33 30" fill="none" xmlns="http://www.w3.org/2000/svg">
<path d="M28.1743 7.23912L28.1782 7.22515L28.178 7.21065L28.0821 1.1526L28.0819 1.14261L28.0798 1.13284C28.0313 0.910636 28.1382 0.696059 28.374 0.522123C28.61 0.348092 28.9617 0.227554 29.3541 0.204586C30.1288 0.159236 31.0324 0.494383 31.4726 1.49828C31.2842 2.37439 31.1772 3.23829 31.0707 4.09721L31.0705 4.09936C30.9625 4.97056 30.8552 5.83666 30.6646 6.71399L30.6554 6.7562L30.6798 6.79182C33.1412 10.3771 33.4114 14.285 32.1986 17.8179C30.9849 21.3533 28.2846 24.5151 24.8031 26.5944C21.3223 28.6733 17.0657 29.6672 12.7422 28.8738C8.42473 28.0815 4.03183 25.5054 0.272911 20.43C0.133783 19.8475 0.0778791 19.3617 0.107862 18.9746C0.138149 18.5835 0.255102 18.3025 0.452161 18.1197C0.648968 17.937 0.941107 17.838 1.35208 17.843C1.76321 17.848 2.28406 17.9574 2.92488 18.1815C13.4167 22.5384 25.0393 18.4704 28.1743 7.23912Z" fill="#FFEE2E" stroke="#468E0D" stroke-width="0.2"/>
</svg>
